<?xml version="1.0" standalone="no"?>
<!DOCTYPE svg PUBLIC "-//W3C//DTD SVG 20010904//EN"
 "http://www.w3.org/TR/2001/REC-SVG-20010904/DTD/svg10.dtd">
<svg version="1.0" xmlns="http://www.w3.org/2000/svg"
 width="256.000000pt" height="256.000000pt" viewBox="0 0 256.000000 256.000000"
 preserveAspectRatio="xMidYMid meet">

<g transform="translate(0.000000,256.000000) scale(0.100000,-0.100000)"
fill="#FAA61A" stroke="none">
<path d="M1135 2550 c-201 -31 -346 -127 -420 -277 -32 -66 -65 -192 -65 -248
0 -48 -8 -57 -65 -75 -68 -22 -152 -68 -174 -96 -32 -40 -28 -95 9 -137 22
-26 85 -66 128 -83 1 -1 -4 -30 -13 -65 -21 -92 -19 -258 4 -351 23 -89 73
-192 130 -268 22 -30 37 -57 33 -60 -4 -4 -38 -12 -76 -19 -228 -40 -406 -180
-467 -369 -19 -57 -23 -96 -27 -263 -4 -190 -3 -198 17 -218 l21 -21 1108 0
c986 0 1110 2 1130 16 21 15 22 20 22 202 0 203 -9 258 -57 360 -41 87 -139
180 -243 230 -84 39 -192 72 -241 72 -14 0 -28 3 -32 6 -3 3 15 34 40 67 106
145 148 273 146 452 0 73 -6 141 -15 173 l-15 52 59 32 c71 38 103 78 103 130
0 57 -50 101 -161 143 l-89 33 -16 99 c-27 162 -71 254 -161 340 -103 97 -233
141 -433 148 -66 2 -147 0 -180 -5z m365 -149 c167 -53 257 -172 285 -373 7
-55 14 -52 -140 -70 -143 -17 -624 -15 -760 4 l-100 13 -3 36 c-4 44 22 148
50 202 51 101 171 184 298 206 91 16 295 6 370 -18z m-545 -576 c209 -21 558
-16 771 11 l142 18 76 -28 c42 -16 78 -32 81 -37 14 -22 -134 -67 -319 -96
-163 -26 -694 -26 -851 0 -135 23 -258 53 -299 74 l-30 16 40 20 c99 51 98 51
389 22z m-125 -260 c179 -28 442 -38 634 -26 157 10 339 31 402 47 20 5 24 0
33 -33 62 -229 -36 -505 -232 -650 -279 -207 -649 -164 -875 101 -51 61 -106
168 -127 251 -18 71 -20 214 -3 285 12 51 12 52 42 45 17 -3 74 -12 126 -20z
m-60 -1037 c0 -128 4 -238 8 -244 21 -32 53 -34 512 -34 l461 0 24 25 25 24 0
231 c0 187 3 230 14 230 7 0 34 -3 60 -6 l46 -7 0 -308 0 -309 -635 0 -635 0
0 309 0 310 28 4 c15 2 42 5 60 6 l32 1 0 -232z m370 126 c154 -31 336 -7 473
62 l47 24 0 -175 0 -175 -380 0 -380 0 0 174 0 174 78 -33 c42 -19 115 -41
162 -51z m-630 -239 l0 -285 -126 0 -126 0 4 153 c3 139 6 157 30 209 15 32
39 73 54 93 25 33 136 115 155 115 5 0 9 -126 9 -285z m1605 256 c65 -37 120
-98 154 -170 24 -52 26 -68 29 -213 l4 -158 -126 0 -126 0 0 285 c0 157 3 285
8 285 4 0 30 -13 57 -29z"/>
</g>
</svg>
